<svg width="60" height="60" viewBox="0 0 60 60" fill="none" xmlns="http://www.w3.org/2000/svg">
<circle cx="30" cy="30" r="29.5" transform="matrix(4.37114e-08 1 1 -4.37114e-08 0 0)" fill="white" stroke="#DCE1E8"/>
<path d="M23.5469 15H23.0879L24.3818 11.4648H24.8457L26.1396 15H25.6758L25.3242 14.0039H23.9033L23.5469 15ZM24.0352 13.6182H25.1875L24.626 12.0361H24.5967L24.0352 13.6182ZM27.5186 15.0537C26.7666 15.0537 26.3076 14.4824 26.3076 13.6865C26.3076 12.8809 26.7861 12.3145 27.5088 12.3145C28.0752 12.3145 28.4951 12.6465 28.5635 13.1494H28.1436C28.085 12.9053 27.8701 12.6855 27.5186 12.6855C27.0449 12.6855 26.7275 13.0762 26.7275 13.6719C26.7275 14.2871 27.0352 14.6777 27.5186 14.6777C27.8311 14.6777 28.0703 14.5117 28.1436 14.2188H28.5635C28.4951 14.6924 28.1094 15.0537 27.5186 15.0537ZM30.1133 12.3486V12.7002H29.5566V14.2383C29.5566 14.5801 29.7227 14.6338 29.9033 14.6338C29.9814 14.6338 30.0889 14.6289 30.1523 14.624V15.0146C30.0889 15.0244 29.9814 15.0342 29.8594 15.0342C29.5078 15.0342 29.1318 14.8145 29.1318 14.3457V12.7002H28.7314V12.3486H29.1318V11.7139H29.5566V12.3486H30.1133ZM30.5303 15V12.3486H30.9502V15H30.5303ZM30.7402 11.9092C30.5791 11.9092 30.4473 11.7871 30.4473 11.6309C30.4473 11.4746 30.5791 11.3525 30.7402 11.3525C30.9014 11.3525 31.0381 11.4746 31.0381 11.6309C31.0381 11.7871 30.9014 11.9092 30.7402 11.9092ZM32.5781 15.0537C31.8555 15.0537 31.3672 14.5117 31.3672 13.6865C31.3672 12.8613 31.8555 12.3145 32.5781 12.3145C33.2959 12.3145 33.7793 12.8613 33.7793 13.6865C33.7793 14.5117 33.2959 15.0537 32.5781 15.0537ZM32.5781 14.6826C33.1104 14.6826 33.3594 14.2139 33.3594 13.6865C33.3594 13.1592 33.1104 12.6855 32.5781 12.6855C32.0361 12.6855 31.7871 13.1592 31.7871 13.6865C31.7871 14.2139 32.0361 14.6826 32.5781 14.6826ZM34.626 13.4082V15H34.2061V12.3486H34.6113V12.7637H34.6455C34.7725 12.4951 35.0166 12.3145 35.4219 12.3145C35.959 12.3145 36.3154 12.6416 36.3154 13.3154V15H35.8955V13.3447C35.8955 12.9346 35.6709 12.6904 35.2949 12.6904C34.9092 12.6904 34.626 12.9492 34.626 13.4082Z" fill="#3D57E2"/>
<path d="M29.4375 44.3125C24.4688 44.3125 20.9062 41.5625 20.8125 37.625H25.5625C25.6562 39.3125 27.2812 40.4375 29.4688 40.4375C31.7188 40.4375 33.3438 39.1562 33.3125 37.3438C33.3438 35.5 31.6875 34.1875 29.0312 34.1875H26.9375V30.7188H29.0312C31.25 30.7188 32.8125 29.5 32.8125 27.7188C32.8125 26 31.5 24.8125 29.5 24.8125C27.5 24.8125 25.8438 25.9375 25.7812 27.6562H21.2812C21.3438 23.75 24.875 21.0625 29.5 21.0625C34.2188 21.0625 37.375 23.8438 37.3438 27.4375C37.375 29.9688 35.5938 31.7812 33.0625 32.2188V32.4062C36.375 32.8125 38.2188 34.8438 38.1875 37.6562C38.2188 41.5312 34.5312 44.3125 29.4375 44.3125Z" fill="#3D57E2"/>
</svg>
