<svg width="60" height="60" viewBox="0 0 60 60" fill="none" xmlns="http://www.w3.org/2000/svg">
<circle cx="30" cy="30" r="29.5" transform="matrix(4.37114e-08 1 1 -4.37114e-08 0 0)" fill="white" stroke="#DCE1E8"/>
<path d="M22.0156 41L21.9844 37.5938L30.1094 30.125C32.2344 28.0938 33.3594 26.8438 33.3594 25.0625C33.3594 23.0625 31.8281 21.8125 29.7656 21.8125C27.6406 21.8125 26.2656 23.1562 26.2656 25.3125H21.7969C21.7656 20.875 25.0469 18.0625 29.8281 18.0625C34.6719 18.0625 37.8906 20.8125 37.8906 24.75C37.8906 27.3125 36.6406 29.4375 31.9844 33.6562L28.5469 37V37.125H38.2031V41H22.0156Z" fill="#3D57E2"/>
</svg>
