<svg width="60" height="60" viewBox="0 0 60 60" fill="none" xmlns="http://www.w3.org/2000/svg">
<circle cx="30" cy="30" r="29.5" transform="matrix(4.37114e-08 1 1 -4.37114e-08 0 0)" fill="white" stroke="#DCE1E8"/>
<path d="M29.4375 41.3125C24.4688 41.3125 20.9062 38.5625 20.8125 34.625H25.5625C25.6562 36.3125 27.2812 37.4375 29.4688 37.4375C31.7188 37.4375 33.3438 36.1562 33.3125 34.3438C33.3438 32.5 31.6875 31.1875 29.0312 31.1875H26.9375V27.7188H29.0312C31.25 27.7188 32.8125 26.5 32.8125 24.7188C32.8125 23 31.5 21.8125 29.5 21.8125C27.5 21.8125 25.8438 22.9375 25.7812 24.6562H21.2812C21.3438 20.75 24.875 18.0625 29.5 18.0625C34.2188 18.0625 37.375 20.8438 37.3438 24.4375C37.375 26.9688 35.5938 28.7812 33.0625 29.2188V29.4062C36.375 29.8125 38.2188 31.8438 38.1875 34.6562C38.2188 38.5312 34.5312 41.3125 29.4375 41.3125Z" fill="#3D57E2"/>
</svg>
