<svg width="178" height="175" viewBox="0 0 178 175" fill="none" xmlns="http://www.w3.org/2000/svg">
<path d="M154.522 138.771C164.009 126.192 169.779 111.177 171.171 95.4491C172.563 79.7212 169.52 63.9171 162.391 49.8495C155.263 35.7818 144.337 24.0204 130.867 15.9142C117.397 7.80792 101.929 3.68516 86.236 4.01875C70.5433 4.35233 55.2619 9.12876 42.1445 17.8002C29.0271 26.4716 18.6048 38.6868 12.0731 53.0448C5.54146 67.4029 3.16489 83.3222 5.21601 98.9769C7.26714 114.632 13.6629 129.388 23.6697 141.553L26.0586 139.564C16.4234 127.851 10.2652 113.643 8.2902 98.5693C6.31525 83.4959 8.60356 68.1677 14.8927 54.3429C21.1818 40.5181 31.217 28.7565 43.8473 20.4071C56.4777 12.0576 71.1916 7.4586 86.3015 7.1374C101.411 6.8162 116.305 10.7859 129.275 18.5911C142.245 26.3963 152.765 37.721 159.629 51.2662C166.493 64.8114 169.423 80.0286 168.082 95.1725C166.742 110.316 161.186 124.773 152.051 136.886L154.522 138.771Z" fill="#DCE0E6"/>
<path d="M24.84 141.185C22.845 142.908 19.8157 142.678 18.2284 140.573C11.7729 132.013 6.92587 122.311 3.9447 111.947C0.520004 100.041 -0.364166 87.5354 1.35077 75.2581C3.0657 62.9807 7.34059 51.2122 13.8921 40.7326C20.4436 30.2529 29.1221 21.3015 39.3525 14.4714C49.5829 7.64142 61.1314 3.08881 73.2328 1.11536C85.3342 -0.8581 97.712 -0.207343 109.546 3.0245C121.38 6.25634 132.4 11.9955 141.875 19.8615C150.154 26.7341 157.088 35.0932 162.337 44.505C163.6 46.7683 162.64 49.5868 160.323 50.7481C157.976 51.9245 155.132 50.9528 153.836 48.6698C149.195 40.4954 143.12 33.2281 135.896 27.2311C127.453 20.2222 117.634 15.1083 107.089 12.2286C96.5449 9.34892 85.5157 8.76906 74.7328 10.5275C63.95 12.2859 53.6597 16.3425 44.544 22.4284C35.4283 28.5142 27.6954 36.4903 21.8577 45.8282C16.02 55.166 12.2109 65.6522 10.6828 76.5919C9.15469 87.5316 9.94254 98.6749 12.9941 109.283C15.612 118.384 19.8448 126.913 25.4729 134.459C27.0239 136.538 26.8033 139.49 24.84 141.185Z" fill="url(#paint0_angular_31_374)"/>
<g filter="url(#filter0_d_31_374)">
<circle cx="161.5" cy="53" r="12" fill="white"/>
</g>
<circle cx="161.5" cy="53" r="8" fill="#F53C3C"/>
<path d="M61.0801 61.9688V62.8301H49.9922V61.9688H55.0098V60.5469H51.4004V56.5273H59.6992V57.3887H52.4531V59.6719H59.7812V60.5469H56.0488V61.9688H61.0801ZM55.5293 63.7188C58.1406 63.7188 59.6992 64.5117 59.7129 65.9062C59.6992 67.3145 58.1406 68.0938 55.5293 68.1074C52.9043 68.0938 51.332 67.3145 51.332 65.9062C51.332 64.5117 52.9043 63.7188 55.5293 63.7188ZM55.5293 64.5664C53.5742 64.5664 52.4121 65.0723 52.4258 65.9062C52.4121 66.7539 53.5742 67.2461 55.5293 67.2461C57.457 67.2461 58.6328 66.7539 58.6328 65.9062C58.6328 65.0723 57.457 64.5664 55.5293 64.5664ZM65.1871 56.4043C67.0055 56.418 68.3316 57.5117 68.3316 59.0977C68.3316 60.6836 67.0055 61.7773 65.1871 61.7773C63.3414 61.7773 62.0289 60.6836 62.0289 59.0977C62.0289 57.5117 63.3414 56.418 65.1871 56.4043ZM65.1871 57.3066C63.9703 57.3066 63.068 58.0449 63.0816 59.0977C63.068 60.1641 63.9703 60.9023 65.1871 60.9023C66.3902 60.9023 67.2926 60.1641 67.2926 59.0977C67.2926 58.0449 66.3902 57.3066 65.1871 57.3066ZM71.777 55.9531V62.2012H70.7105V55.9531H71.777ZM71.777 62.7891V65.7148H64.9547V67.082H72.2145V67.9434H63.902V64.9082H70.7105V63.6504H63.8746V62.7891H71.777ZM80.7703 59.6855C80.7566 61.6406 82.1648 63.7871 83.9285 64.6211L83.3133 65.4688C81.9461 64.8057 80.7908 63.3564 80.2508 61.709C79.6902 63.5 78.4666 65.0723 77.1063 65.7695L76.45 64.9219C78.2 64.0742 79.7039 61.7637 79.7176 59.6855V58.0996H76.8875V57.2109H83.5047V58.0996H80.7703V59.6855ZM86.0613 55.9531V60.875H88.0984V61.791H86.0613V68.1074H84.9949V55.9531H86.0613ZM92.0141 59.4121C92.0141 61.3398 92.9574 63.4316 94.5707 64.3887L93.9555 65.2227C92.7865 64.5117 91.9457 63.2129 91.5219 61.7363C91.0707 63.3496 90.1684 64.7373 88.9516 65.4824L88.268 64.6758C89.9496 63.6914 90.975 61.5312 90.975 59.4531V57.1016H92.0141V59.4121ZM98.8227 55.9531V68.1074H97.7836V55.9531H98.8227ZM96.307 56.2129V67.4922H95.2953V61.2305H93.2309V60.3145H95.2953V56.2129H96.307ZM107.666 59.6855C107.666 61.75 109.17 63.8418 110.961 64.6211L110.359 65.4688C108.937 64.8193 107.707 63.418 107.146 61.7363C106.572 63.5205 105.348 65.0723 103.961 65.7695L103.318 64.9219C105.054 64.0879 106.572 61.791 106.586 59.6855V58.0996H103.714V57.2109H110.564V58.0996H107.666V59.6855ZM113.339 55.9531V68.1074H112.259V55.9531H113.339ZM126.183 62.0645V62.9531H115.068V62.0645H120.071V60.1914H121.124V62.0645H126.183ZM121.138 56.7188C121.138 58.332 123.325 59.6855 125.472 59.9863L125.034 60.8477C123.189 60.5264 121.363 59.5488 120.605 58.1406C119.839 59.5557 118.007 60.5264 116.148 60.8477L115.738 59.9863C117.884 59.6855 120.058 58.332 120.058 56.7188V56.1445H121.138V56.7188ZM124.775 64.1426V68.1074H123.695V65.0039H116.298V64.1426H124.775Z" fill="#717A8C"/>
<path d="M39.3281 99.2344C35.6016 99.2344 32.9297 97.1719 32.8594 94.2188H36.4219C36.4922 95.4844 37.7109 96.3281 39.3516 96.3281C41.0391 96.3281 42.2578 95.3672 42.2344 94.0078C42.2578 92.625 41.0156 91.6406 39.0234 91.6406H37.4531V89.0391H39.0234C40.6875 89.0391 41.8594 88.125 41.8594 86.7891C41.8594 85.5 40.875 84.6094 39.375 84.6094C37.875 84.6094 36.6328 85.4531 36.5859 86.7422H33.2109C33.2578 83.8125 35.9062 81.7969 39.375 81.7969C42.9141 81.7969 45.2812 83.8828 45.2578 86.5781C45.2812 88.4766 43.9453 89.8359 42.0469 90.1641V90.3047C44.5312 90.6094 45.9141 92.1328 45.8906 94.2422C45.9141 97.1484 43.1484 99.2344 39.3281 99.2344ZM55.9688 84.6562C55.9688 88.5703 57.75 92.5078 61.3594 94.0312L59.6016 96.4219C57.1641 95.3203 55.4766 93.1992 54.5156 90.5625C53.543 93.4336 51.7969 95.7539 49.1953 96.9375L47.3906 94.4531C51.1172 92.8828 52.9219 88.8047 52.9453 84.6562V81.4688H55.9688V84.6562ZM65.5312 79.8281V101.203H62.5078V79.8281H65.5312ZM85.3359 79.8281V85.8047H88.2188V88.2656H85.3359V95.1094H82.3125V79.8281H85.3359ZM79.5234 81.4219C79.5234 87.1875 75.9141 91.2188 69.5156 93.0234L68.2734 90.6562C73.043 89.3203 75.75 86.8477 76.2422 83.8594H69.2109V81.4219H79.5234ZM86.0625 98.3906V100.781H71.4609V93.5391H74.4844V98.3906H86.0625ZM95.3906 99L95.3672 96.4453L101.461 90.8438C103.055 89.3203 103.898 88.3828 103.898 87.0469C103.898 85.5469 102.75 84.6094 101.203 84.6094C99.6094 84.6094 98.5781 85.6172 98.5781 87.2344H95.2266C95.2031 83.9062 97.6641 81.7969 101.25 81.7969C104.883 81.7969 107.297 83.8594 107.297 86.8125C107.297 88.7344 106.359 90.3281 102.867 93.4922L100.289 96V96.0938H107.531V99H95.3906ZM116.625 99.2344C112.383 99.2344 109.805 96.0703 109.805 90.5156C109.805 84.9609 112.383 81.7969 116.625 81.7969C120.867 81.7969 123.445 84.9844 123.445 90.5156C123.445 96.0938 120.867 99.2344 116.625 99.2344ZM116.625 96.3281C118.594 96.3281 119.859 94.4297 119.836 90.5156C119.836 86.6484 118.594 84.6797 116.625 84.6797C114.656 84.6797 113.414 86.6484 113.414 90.5156C113.391 94.4297 114.656 96.3281 116.625 96.3281ZM144.68 90.7734V93.1172H136.641V96.5625H133.688V93.1172H125.156V90.7734H144.68ZM142.523 98.3906V100.781H127.453V94.875H130.406V98.3906H142.523ZM130.617 80.5078V82.7344H139.172V80.5078H142.148V89.2734H127.664V80.5078H130.617ZM130.617 86.9062H139.172V84.9609H130.617V86.9062Z" fill="#32353C"/>
<defs>
<filter id="filter0_d_31_374" x="145.5" y="37" width="32" height="32" filterUnits="userSpaceOnUse" color-interpolation-filters="sRGB">
<feFlood flood-opacity="0" result="BackgroundImageFix"/>
<feColorMatrix in="SourceAlpha" type="matrix" values="0 0 0 0 0 0 0 0 0 0 0 0 0 0 0 0 0 0 127 0" result="hardAlpha"/>
<feOffset/>
<feGaussianBlur stdDeviation="2"/>
<feComposite in2="hardAlpha" operator="out"/>
<feColorMatrix type="matrix" values="0 0 0 0 0.63125 0 0 0 0 0.667722 0 0 0 0 0.701389 0 0 0 0.5 0"/>
<feBlend mode="normal" in2="BackgroundImageFix" result="effect1_dropShadow_31_374"/>
<feBlend mode="normal" in="SourceGraphic" in2="effect1_dropShadow_31_374" result="shape"/>
</filter>
<radialGradient id="paint0_angular_31_374" cx="0" cy="0" r="1" gradientUnits="userSpaceOnUse" gradientTransform="translate(87.5 88) rotate(90.3293) scale(87.0014 86.0071)">
<stop offset="0.145833" stop-color="#FF0F00"/>
<stop offset="0.505208" stop-color="#FFEA31"/>
<stop offset="0.848958" stop-color="#4CDE18"/>
</radialGradient>
</defs>
</svg>
